HIERARCHY
ROOT Hips
{
	OFFSET 0.00000 0.00000 0.00000
	CHANNELS 6 Xposition Yposition Zposition Yrotation Zrotation Xrotation 
	JOINT Lumbar
	{
		OFFSET 0 0 0
		CHANNELS 3 Zrotation Xrotation Yrotation
		JOINT Neck
		{
			OFFSET 0.00 0.2701 0.00
			CHANNELS 3 Zrotation Xrotation Yrotation
			End Site
			{
				OFFSET 0.00 0.1379 0.00
			}
		}
		JOINT RightShoulder
		{
			OFFSET 0.0119 0.2289 0.1181
			CHANNELS 3 Zrotation Xrotation Yrotation
			JOINT RightElbow
			{
				OFFSET 0.00 -0.1475 0.00
				CHANNELS 2 Zrotation Yrotation
				JOINT RightWrist
				{
					OFFSET 0.00 -0.1605 0.00
					CHANNELS 2 Zrotation Xrotation
					End Site
					{
						OFFSET 0.0040 -0.1068 0.0006
					}
				}
			}
		}
		JOINT LeftShoulder
		{
			OFFSET 0.0119 0.2289 -0.1181
			CHANNELS 3 Zrotation Xrotation Yrotation
			JOINT LeftElbow
			{
				OFFSET 0.00 -0.1475 0.00
				CHANNELS 2 Zrotation Yrotation
				JOINT LeftWrist
				{
					OFFSET 0.00 -0.1605 0.00
					CHANNELS 2 Zrotation Xrotation
					End Site
					{
						OFFSET 0.0040 -0.1068 -0.0006
					}
				}
			}
		}
	}
	JOINT RightHip
	{
		OFFSET 0.0316 -0.0424 0.0458
		CHANNELS 3 Zrotation Xrotation Yrotation
		JOINT RightKnee
		{
			OFFSET 0.00 -0.2438 0.00
			CHANNELS 1 Zrotation
			JOINT RightAnkle
			{
				OFFSET 0.00 -0.2449 0.00
				CHANNELS 3 Zrotation Xrotation Yrotation
				End Site
				{
					OFFSET 0.1237 -0.0542 0.0051
				}
			}
		}
	}
	JOINT LeftHip
	{
		OFFSET 0.0316 -0.0424 -0.0458
		CHANNELS 3 Zrotation Xrotation Yrotation
		JOINT LeftKnee
		{
			OFFSET 0.00 -0.2438 0.00
			CHANNELS 1 Zrotation
			JOINT LeftAnkle
			{
				OFFSET 0.00 -0.2449 0.00
				CHANNELS 3 Zrotation Xrotation Yrotation
				End Site
				{
					OFFSET 0.1237 -0.0542 -0.0051
				}
			}
		}
	}
}
MOTION
Frames: 19
Frame Time: 0.02
1.09086 -0.0228 -0.14531 1245.0332 -28.93734 6.134 45.87698 2.03427 6.81517 -14.67767 -3.10203 -2.11994 -27.72696 -1.9771 -28.52063 50.68905 67.95514 -17.62379 0.41153 6.40831 12.95886 57.31267 121.4203 -60.67434 -20.45555 -1.56542 30.85332 -1.5361 -11.32445 -52.71865 -8.12883 -2.94173 -3.74358 48.48041 -4.87815 34.43413 -0.93472 -20.10242 -23.76796 -9.29896
1.07603 -0.02315 -0.14787 1245.17341 -28.57767 6.69526 45.96591 1.82947 6.71648 -14.89105 -3.1305 -2.11994 -29.403 -1.80169 -27.50777 50.6087 67.09079 -17.74766 0.59722 6.20954 12.38545 57.4844 121.42829 -60.90439 -20.38219 -1.53668 31.38301 -2.07301 -9.3923 -55.31287 -9.29979 -2.78145 -3.72013 48.20783 -4.93313 32.3696 -4.60883 -18.08753 -19.59029 -7.25126
1.062 -0.02351 -0.15002 1245.11552 -28.03913 7.12076 45.77893 1.70439 6.59951 -15.08777 -3.09264 -2.11994 -31.19138 -1.70833 -26.32885 50.45757 66.13167 -17.86157 0.80498 6.16459 11.95336 57.51309 121.44357 -61.0717 -20.36692 -1.50983 32.23266 -2.58837 -7.38619 -58.29306 -10.68724 -2.54899 -3.67159 48.15683 -4.66806 29.89653 -9.3151 -15.72943 -14.18658 -4.60265
1.0477 -0.02387 -0.1524 1245.13239 -27.56679 7.58069 45.69036 1.55454 6.46659 -15.28913 -3.07547 -2.11994 -32.88205 -1.57523 -25.27065 50.30275 65.24558 -17.98205 0.99494 6.05457 11.47851 57.60001 121.44685 -61.26567 -20.31773 -1.4882 32.95861 -3.10736 -5.48003 -61.08669 -11.92987 -2.36441 -3.63983 47.95126 -4.54016 27.65486 -13.46857 -13.58334 -9.49202 -2.3016
1.03293 -0.0242 -0.15461 1245.21588 -27.15272 8.16088 45.71836 1.35336 6.43232 -15.50599 -3.09948 -2.11994 -34.78825 -1.45017 -24.0119 50.29623 64.23903 -18.09414 1.21614 5.92132 10.90424 57.71411 121.48429 -61.47963 -20.29706 -1.44048 33.59298 -3.65757 -3.27968 -63.94891 -13.37256 -2.11735 -3.58615 47.95377 -4.45588 25.18944 -17.98603 -11.18889 -4.12714 0.32957
1.01936 -0.0246 -0.15708 1245.11676 -26.58101 8.45493 45.44083 1.27791 6.18588 -15.68559 -3.02029 -2.11994 -36.26414 -1.32611 -23.14205 49.96797 63.45043 -18.22076 1.38018 5.8756 10.57452 57.73616 121.4538 -61.64163 -20.22853 -1.44499 34.49576 -4.13167 -1.68052 -66.73489 -14.4487 -1.98224 -3.57156 47.58737 -4.19965 23.10244 -21.98463 -9.23429 0.12556 2.41181
1.0089 -0.0253 -0.16031 1244.5116 -25.5669 8.00996 44.33926 1.5452 5.40586 -15.76405 -2.68713 -2.11994 -36.53596 -1.21828 -23.29786 48.7334 63.39086 -18.39525 1.35503 6.01564 10.87915 57.56309 121.22728 -61.55733 -20.05876 -1.62768 36.03769 -4.45041 -1.75326 -69.41607 -14.4559 -2.18131 -3.67481 46.09331 -3.56989 22.18717 -24.31991 -8.58462 0.95829 2.80619
0.99963 -0.02607 -0.16384 1243.73768 -24.41008 7.27824 42.94759 1.93375 4.40609 -15.80559 -2.24977 -2.11994 -36.36654 -1.10399 -23.86531 47.18375 63.53748 -18.58317 1.276 6.24237 11.42731 57.29795 120.93364 -61.43889 -19.83287 -1.85756 37.8406 -4.68448 -2.43665 -71.9649 -14.08689 -2.49395 -3.81743 44.23284 -2.77394 21.66446 -26.09212 -8.39006 0.63379 2.62949
0.98982 -0.02677 -0.16729 1243.07325 -23.35183 6.66508 41.71917 2.25791 3.47556 -15.865 -1.85036 -2.11994 -36.38855 -0.97033 -24.30569 45.80178 63.51872 -18.76222 1.23895 6.4411 11.86936 57.06024 120.67538 -61.4139 -19.60229 -2.04299 39.54213 -4.92406 -2.84651 -74.4486 -13.8919 -2.74989 -3.93959 42.57773 -2.03672 20.95195 -28.10652 -7.98468 0.86646 2.72814
0.98 -0.02766 -0.17049 1242.26444 -22.14432 6.09534 40.34884 2.62525 2.66979 -15.91907 -1.488 -2.11994 -36.45172 -0.93005 -24.49629 44.31509 63.78878 -18.95496 1.13017 6.59559 12.29712 56.88001 120.3968 -61.06969 -19.49516 -2.323 41.19136 -5.29987 -3.23677 -77.49364 -13.6914 -3.02544 -4.07202 40.76505 -1.35506 20.28149 -30.21487 -7.58384 1.01069 2.78142
0.97049 -0.02816 -0.17429 1241.71774 -21.21696 5.37076 39.2085 2.92884 1.55694 -15.97595 -1.02503 -2.11994 -36.3247 -0.69716 -25.29529 42.97119 63.52055 -19.11954 1.15601 6.86267 12.81043 56.55796 120.14442 -61.36847 -19.12427 -2.42041 42.99578 -5.37486 -3.81382 -79.3093 -13.41054 -3.28723 -4.19237 39.19206 -0.52773 19.6111 -31.98039 -7.28627 1.04804 2.78553
0.96154 -0.02752 -0.17967 1241.94665 -21.09196 4.2729 38.77817 3.04013 -0.3896 -16.04745 -0.30658 -2.11994 -35.76413 0.10371 -27.77253 42.11183 61.60883 -19.22774 1.57984 7.40237 13.5012 55.88589 119.98171 -63.57642 -17.97438 -1.97428 45.2613 -4.61543 -4.75144 -77.96502 -12.99504 -3.49484 -4.27509 38.35789 0.70684 18.94626 -32.93067 -7.164 1.06642 2.79066
0.95285 -0.02649 -0.18565 1242.4443 -21.25572 3.03303 38.59017 3.08022 -2.62964 -16.12361 0.5082 -2.11994 -35.03069 1.09096 -30.82774 41.40539 59.17226 -19.30198 2.13744 8.05434 14.26801 55.07174 119.84757 -66.41011 -16.5724 -1.3478 47.65378 -3.56043 -5.85207 -75.35045 -12.51114 -3.68585 -4.34498 37.77824 2.07272 18.25381 -33.55121 -7.13162 1.01179 2.76326
0.94405 -0.02568 -0.19135 1242.81285 -21.29244 1.86891 38.28974 3.14374 -4.70983 -16.19905 1.27699 -2.11994 -34.38538 1.96926 -33.55747 40.6201 57.04183 -19.37642 2.62639 8.66595 14.99986 54.31045 119.69958 -68.87463 -15.32823 -0.82226 49.92403 -2.65742 -6.88915 -73.18 -12.06095 -3.87345 -4.41534 37.09014 3.34624 17.50633 -34.3218 -7.05866 0.98939 2.74982
0.93528 -0.02471 -0.19707 1243.20435 -21.30706 0.64622 37.98782 3.24918 -6.91128 -16.26699 2.06046 -2.11994 -33.68077 2.95246 -36.57686 39.86139 54.61831 -19.51817 3.15084 9.23764 15.74538 53.59401 119.5525 -71.69342 -13.90094 -0.21877 52.47847 -1.67856 -7.92521 -71.55861 -11.5879 -4.09902 -4.50323 36.3616 4.76148 17.04673 -35.07309 -6.99949 0.93311 2.72114
0.92648 -0.02398 -0.20289 1243.61466 -21.43729 -0.483 37.7515 3.24887 -8.92468 -16.35252 2.83277 -2.11994 -33.06885 3.75843 -39.11203 39.09007 52.69643 -19.50834 3.62857 9.91553 16.47306 52.75327 119.41171 -73.9265 -12.79418 0.26649 54.46464 -0.78647 -8.96633 -68.50469 -11.14958 -4.25538 -4.55919 35.77913 5.91339 15.98949 -35.79284 -6.92795 0.94284 2.72283
0.91764 -0.02402 -0.2088 1244.00775 -21.82484 -1.33069 37.63015 2.97285 -10.36548 -16.48243 3.56831 -2.11994 -32.71715 4.05527 -40.28151 38.22677 52.12365 -19.1162 3.99081 10.8794 17.16725 51.59121 119.27735 -74.36189 -12.64977 0.3753 54.87397 -0.22459 -10.22755 -61.71652 -10.83785 -4.08446 -4.4554 35.56786 6.28024 13.16945 -36.51229 -6.79141 1.17475 2.82671
0.90873 -0.02431 -0.21479 1244.4121 -22.31785 -2.07615 37.56972 2.59264 -11.60218 -16.63061 4.28564 -2.11994 -32.473 4.16301 -40.92432 37.34971 52.09951 -18.56843 4.29393 11.94182 17.83282 50.31236 119.14957 -74.19126 -12.83417 0.36017 54.70106 0.24287 -11.44655 -53.553 -10.56246 -3.86386 -4.33027 35.49096 6.38172 9.76849 -37.21272 -6.6389 1.47725 2.96318
0.89977 -0.0245 -0.22075 1244.81434 -22.75762 -2.85916 37.48685 2.26001 -12.91927 -16.77263 4.99904 -2.11994 -32.20801 4.33962 -41.72748 36.49481 51.93616 -18.07222 4.59295 12.9457 18.48824 49.09524 119.02149 -74.31645 -12.8579 0.40595 54.77831 0.765 -12.51122 -46.07181 -10.2634 -3.76532 -4.26804 35.3347 6.62043 6.7107 -37.92089 -6.49702 1.73857 3.08066
